<svg xmlns="http://www.w3.org/2000/svg" width="17.122" height="17.122" viewBox="0 0 17.122 17.122"><defs><style>.a{fill:#0a9b3e;}</style></defs><g transform="translate(0 -0.007)"><g transform="translate(0 0.007)"><path class="a" d="M16.966,16.215.914.164A.535.535,0,0,0,.158.92L1.814,2.577a15.5,15.5,0,0,0-1.557.815.533.533,0,0,0-.174.742L1.514,6.407a12.862,12.862,0,0,1,2.76-1.37l.852.852A11.7,11.7,0,0,0,2.083,7.311L3.222,9.119a9.506,9.506,0,0,1,3.694-1.44l.942.942a8.507,8.507,0,0,0-4.066,1.4l1.142,1.813a6.336,6.336,0,0,1,5.221-.919l6.055,6.055a.535.535,0,1,0,.758-.757Z" transform="translate(0 -0.007)"/></g><g transform="translate(4.005 1.077)"><path class="a" d="M132.861,34.665a.533.533,0,0,0-.243-.335,16.016,16.016,0,0,0-12.859-1.65l2.684,2.684a12.779,12.779,0,0,1,8.92,1.981l1.431-2.272A.531.531,0,0,0,132.861,34.665Z" transform="translate(-119.759 -32.015)"/></g><g transform="translate(7.656 5.358)"><path class="a" d="M229.848,160.015q-.457,0-.905.035l2.2,2.2a9.568,9.568,0,0,1,4.042,1.524l1.139-1.81A11.7,11.7,0,0,0,229.848,160.015Z" transform="translate(-228.943 -160.015)"/></g><g transform="translate(11.291 9.028)"><path class="a" d="M337.647,269.775l1.636,1.636.4-.641A8.524,8.524,0,0,0,337.647,269.775Z" transform="translate(-337.647 -269.775)"/></g><g transform="translate(5.506 11.778)"><path class="a" d="M167.71,352.015a5.307,5.307,0,0,0-3.055.97l2.6,4.132a.536.536,0,0,0,.906,0l2.6-4.132A5.3,5.3,0,0,0,167.71,352.015Z" transform="translate(-164.655 -352.015)"/></g></g></svg>